<svg width="50" height="55" viewBox="0 0 50 55" fill="none" xmlns="http://www.w3.org/2000/svg">
<path d="M33.9286 13.75C33.9286 11.4708 32.9879 9.28494 31.3135 7.6733C29.639 6.06166 27.368 5.15625 25 5.15625C22.632 5.15625 20.361 6.06166 18.6865 7.6733C17.0121 9.28494 16.0714 11.4708 16.0714 13.75C16.0714 16.0292 17.0121 18.2151 18.6865 19.8267C20.361 21.4383 22.632 22.3438 25 22.3438C27.368 22.3438 29.639 21.4383 31.3135 19.8267C32.9879 18.2151 33.9286 16.0292 33.9286 13.75ZM10.7143 13.75C10.7143 10.1033 12.2194 6.60591 14.8985 4.02728C17.5776 1.44866 21.2112 0 25 0C28.7888 0 32.4224 1.44866 35.1015 4.02728C37.7806 6.60591 39.2857 10.1033 39.2857 13.75C39.2857 17.3967 37.7806 20.8941 35.1015 23.4727C32.4224 26.0513 28.7888 27.5 25 27.5C21.2112 27.5 17.5776 26.0513 14.8985 23.4727C12.2194 20.8941 10.7143 17.3967 10.7143 13.75ZM5.50223 49.8438H44.5089C43.5156 43.0439 37.4442 37.8125 30.1116 37.8125H19.9107C12.5781 37.8125 6.5067 43.0439 5.51339 49.8438H5.50223ZM0 51.8096C0 41.2285 8.90625 32.6562 19.8996 32.6562H30.1004C41.0938 32.6562 50 41.2285 50 51.8096C50 53.5713 48.5156 55 46.6853 55H3.31473C1.48438 55 0 53.5713 0 51.8096Z" fill="black" fill-opacity="0.65"/>
</svg>
